<svg xmlns="http://www.w3.org/2000/svg" width="250" height="250" fill="none" viewBox="0 0 250 250"><rect width="250" height="250" fill="#181120"/>
<!-- SVG created with Arrow, by QuiverAI (https://quiver.ai) -->
  <path d="m241.6 15.08v-5.06h-9.22v-4.3h-214.8v1.97h-5.65v6.57h-3.57v219.7h3.33v7.3h5.89v3.33h213.8v-3.58h6.83v-7.05h3.4v-218.9z" fill="#1C1621"/>
  <path d="m210.5 92.73h-5.38v-5.47h-4.22v-4.22h-6.74v-8.41h-51.52v1.57h-3.48v3.48h-5.47v7.58h-6.39v5.47h-3.45v-12.21h-3.48v-5.89h-72.13v5.47h-8.41v89.36h5.47v2.61h3.48v4.22h19.06v-4.22h3.48v-3.48h4.22v-23.68h34.8v-3.48h5.47v-23.68h2.61v-3.48h5.43v46.39h5.89v5.28h5.47v3.48h7.43v6.57h42.24v-1.57h5.12v0.99h11.3v-3.48h3.82v-2.61h5.38v-76.59z" fill="#000A2F"/>
  <path d="m45.7 80.52v88.9h4.42v2.61h16.37v-2.61h3.52v-19.81h0.4v-25.4h39.11v-11.7h10.57v-31.1h-3.52v-0.89h-70.87z" fill="#E9C63F"/>
  <path d="m190.7 80.52v0.89h-49.98v1.72h-2.07v9.01h-9.41v49.83h2.07v18.69h8.13v7.68h3.82v3.48h40.49v-10.42h6.39v10.42h13.77v-18.54h0.79v-21.29h0.38v-39.85h-10.96v-9.01h-3.42v-2.61z" fill="#E9C63F"/>
  <path d="m153.8 96.41v43.3h17.13v-3.09h-10.82v-14.9h2.07v-1.47h17.91v-23.84h-26.29z" fill="#9E8534"/>
  <path d="m70.01 96.11v16.4h50.08v-16.4h-50.08z" fill="#9E8534"/>
  <path d="m70.41 127.7v11.49h39.11v-11.49h-39.11z" fill="#9E8534"/>
  <path d="m131.3 143.5v3.28h10.96v4.52h-2.37v4.27h3.38v1.04h38.63v-4.22h3.09v-7.78h5.89v7.78h2.88v4.22h7.53v-3.33h3.4v16h-8.51v2.5h-6.05v-10.42h-6.39v10.42h-41.15v-3.48h-3.82v-7.68h-9.54v-17.12h2.07z" fill="url(#paint0_linear_1001_311)"/>
  <path d="m194.5 136.2v4.72h6.79v2.75h3.4v-11.7h-4.33v4.23h-5.86z" fill="url(#paint1_linear_1001_311)"/>
  <path d="m45.7 152.9v3.97h4.42v0.89h16.37v-0.89h3.48v-3.97h0.04v16.39h-3.52v1.62h-16.37v-1.62h-4.42v-16.39z" fill="url(#paint2_linear_1001_311)"/>
  <path d="m102.4 24.77v3.62h2.61v-3.62h-2.61z" fill="#E9C63F" stroke="#E9C63F" stroke-miterlimit="10" stroke-width=".75"/>
  <path d="m133.7 54.33v2.87h2.87v-2.87h-2.87z" fill="#E9C63F" stroke="#E9C63F" stroke-miterlimit="10" stroke-width=".75"/>
  <path d="m67.22 209.9v2.87h2.5v-2.87h-2.5z" fill="#E9C63F" stroke="#E9C63F" stroke-miterlimit="10" stroke-width=".75"/>
  <path d="m180.1 202.4v-3.23h-3.82v3.23h-4.22v3.48h4.22v3.48h3.48v-3.48h3.48v-3.48h-3.14z" fill="#E9C63F" stroke="#E9C63F" stroke-miterlimit="10" stroke-width=".75"/>
  <path d="m228 115.6v-2.92h-3.13v-1.57 0.05-0.05 0.05-0.05 0.05-0.05 0.05-0.05 0.05-0.05 0.05-1.52h-1.83v3.04h-3.23v2.92h3.23v5.07h1.83v-2.59 0.13-0.13 0.13-0.13 0.13-0.13 0.13-0.13 0.13-0.13 0.13-2.61h3.13z" fill="#9E8534" stroke="#9E8534" stroke-miterlimit="10" stroke-width=".75"/>
  <path d="m106.2 184v-7.33h-3.48v7.33h-5.47v4.22h5.47v7.58h3.48v-7.58h6.48v-4.22h-6.48z" fill="#E9C63F" stroke="#E9C63F" stroke-miterlimit="10" stroke-width=".75"/>
  <path d="m26.98 133.9v-3.82h-4.22v3.82h-4.23v3.48h4.23v3.72h3.48v-3.72h3.48v-3.48h-2.74z" fill="#E9C63F" stroke="#E9C63F" stroke-miterlimit="10" stroke-width=".75"/>
  <path d="m68.69 46.11h-2.87v3.82h-4.22v3.48h4.22v3.48h2.87v-3.48h3.52v-3.48h-3.52v-3.82z" fill="#E9C63F" stroke="#E9C63F" stroke-miterlimit="10" stroke-width=".75"/>
  <path d="m193.9 37.7h-2.87v6.19h-5.47v4.22h5.47v8.78h2.87v-8.78h7.58v-2.2h-7.58v-8.21z" fill="#E9C63F" stroke="#E9C63F" stroke-miterlimit="10" stroke-width=".75"/>
  <defs>
    <linearGradient id="paint0_linear_1001_311" x1="167" x2="167" y1="143.5" y2="171.8" gradientUnits="userSpaceOnUse">
      <stop stop-color="#9E8534" offset="0"/>
      <stop stop-color="#9E8534" stop-opacity=".75" offset="1"/>
    </linearGradient>
    <linearGradient id="paint1_linear_1001_311" x1="199.6" x2="199.6" y1="132" y2="143.7" gradientUnits="userSpaceOnUse">
      <stop stop-color="#9E8534" offset="0"/>
      <stop stop-color="#9E8534" stop-opacity=".75" offset="1"/>
    </linearGradient>
    <linearGradient id="paint2_linear_1001_311" x1="57.85" x2="57.85" y1="152.9" y2="170.9" gradientUnits="userSpaceOnUse">
      <stop stop-color="#9E8534" offset="0"/>
      <stop stop-color="#9E8534" stop-opacity=".75" offset="1"/>
    </linearGradient>
  </defs>
</svg>